<?xml version="1.0" encoding="iso-8859-1"?>
<!-- Generator: Adobe Illustrator 19.0.0, SVG Export Plug-In . SVG Version: 6.00 Build 0)  -->
<svg version="1.1" id="Capa_1" xmlns="http://www.w3.org/2000/svg" xmlns:xlink="http://www.w3.org/1999/xlink" x="0px" y="0px"
	 viewBox="0 0 512 512" style="enable-background:new 0 0 512 512;" xml:space="preserve">
<g>
	<g>
		<path d="M437.02,74.98C388.668,26.629,324.38,0,256,0S123.332,26.629,74.98,74.98C26.629,123.333,0,187.62,0,256
			s26.629,132.667,74.98,181.02C123.332,485.371,187.62,512,256,512s132.668-26.629,181.02-74.98
			C485.371,388.667,512,324.38,512,256S485.371,123.333,437.02,74.98z M48.602,329.81l-4.595,41.028
			c-12.658-23.291-21.346-48.535-25.718-74.892l27.757,26.774C47.938,324.546,48.894,327.196,48.602,329.81z M467.646,232.588
			l11.159,20.632c2.905,5.373,7.709,9.357,13.608,11.244l4.378,1.346c-2.418,60.694-27.181,117.405-70.378,160.603
			C380.894,471.932,320.374,497,256,497s-124.894-25.068-170.413-70.587c-10.78-10.78-20.397-22.41-28.822-34.724l6.743-60.209
			c0.808-7.209-1.828-14.52-7.049-19.555l-40.895-39.448C15.198,267.016,15,261.524,15,256c0-64.374,25.068-124.894,70.587-170.413
			c28.429-28.429,62.71-48.88,100.126-60.23l-4.866,12.895c-1.463,3.875,0.493,8.203,4.368,9.665
			c0.872,0.329,1.768,0.485,2.647,0.485c3.03,0,5.885-1.851,7.018-4.854l8.619-22.84c12.486-2.76,25.261-4.526,38.229-5.279
			l-10.58,41.229l-2.878,0.789h-40.736c-7.744,0-14.356,5.789-15.381,13.466l-3.593,26.951l-18.379,0.962
			c-8.055,0.422-14.371,6.818-14.692,14.877l-0.852,21.379c-0.177,4.441,1.563,8.75,4.773,11.824c3.21,3.073,7.58,4.626,12.02,4.255
			l1.31-0.109l-15.212,14.059c-3.042,2.812-3.229,7.557-0.417,10.599c1.479,1.599,3.491,2.409,5.51,2.409
			c1.82,0,3.646-0.659,5.089-1.992l27.758-25.655l61.751,24.327c0.876,0.345,1.808,0.522,2.749,0.522h75.151
			c2.579,0,4.852-1.302,6.202-3.283l0.009-0.012c0.005-0.007,0.01-0.015,0.015-0.022l8.493-12.491c1.21-1.78,1.598-3.995,1.063-6.08
			c-0.534-2.085-1.938-3.84-3.856-4.818l-18.911-9.649l22.544-2.587c9.692-1.112,16.959-9.617,16.543-19.363
			c-0.233-5.485-2.85-10.567-7.179-13.943c-4.33-3.377-9.897-4.677-15.271-3.566l-10.033,2.07
			c-7.947,1.64-14.401,7.152-17.266,14.747l-3.725,9.884l-16.993,4.715c-3.577,0.99-7.354-0.422-9.399-3.518l-12.109-18.328
			c-1.441-2.181-3.929-3.466-6.525-3.361l-56.113,2.004c-2.322,0.083-4.474,1.237-5.828,3.125l-17.019,23.737l-19.575,1.631
			c-0.064,0.007-0.231,0.02-0.399-0.141c-0.169-0.161-0.162-0.33-0.159-0.394l0.852-21.378c0.011-0.268,0.221-0.481,0.488-0.495
			l24.598-1.288c3.606-0.189,6.565-2.92,7.043-6.499l4.416-33.124c0.034-0.256,0.254-0.449,0.512-0.449h41.746
			c0.67,0,1.337-0.09,1.983-0.267l41.417-11.356c2.346-0.643,4.234-2.384,5.065-4.67l5.344-14.696
			c1.415-3.893-0.593-8.196-4.486-9.611c-3.891-1.414-8.195,0.593-9.611,4.485l-4.019,11.052l-17.167,4.707l9.514-37.076
			c63.88,0.341,123.885,25.364,169.093,70.571c44.141,44.141,69.048,102.389,70.516,164.577l-0.029-0.009
			c-2.109-0.675-3.852-2.12-4.905-4.068l-11.159-20.632c-1.97-3.643-6.52-5.002-10.165-3.029
			C467.031,224.393,465.675,228.944,467.646,232.588z M236.962,151.775c3.678,0,6.736-2.646,7.377-6.139
			c0.552-1.802,3.128-8.465,6.27-16.363l4.229,6.402c5.643,8.54,16.063,12.44,25.926,9.703l10.832-3.006l-0.005,0.158
			c-0.094,2.904,1.499,5.602,4.088,6.922l16.973,8.66l-1.502,2.21h-69.757l-55.854-22.003l11.284-15.739l40.876-1.46
			c-8.231,20.508-8.237,21.657-8.237,23.154C229.462,148.417,232.819,151.775,236.962,151.775z M310.772,123.566l0.734-1.95
			c1.038-2.754,3.379-4.753,6.261-5.348l10.033-2.07c0.271-0.056,0.527-0.08,0.769-0.08c1.06,0,1.838,0.465,2.247,0.784
			c0.502,0.392,1.354,1.27,1.417,2.753c0.082,1.924-1.353,3.603-3.267,3.822L310.772,123.566z"/>
	</g>
</g>
<g>
	<g>
		<path d="M390.084,348.455c-3.173-2.665-7.903-2.254-10.567,0.919l-21.042,25.05c-2.664,3.171-2.252,7.902,0.919,10.566
			c1.406,1.181,3.117,1.757,4.82,1.757c2.139,0,4.264-0.91,5.747-2.676l21.042-25.05
			C393.667,355.85,393.255,351.119,390.084,348.455z"/>
	</g>
</g>
<g>
	<g>
		<path d="M464.707,195.639c-4.668-8.395-13.805-13.064-23.363-11.92l-36.561,4.323l-22.872-20.465
			c-3.327-2.976-8.576-2.439-11.194,1.357c-2.166,3.14-1.459,7.449,1.383,9.992l25.193,22.542c1.598,1.429,3.724,2.107,5.86,1.861
			l13.031-1.503l5.508,7.538l-47.726,32.005c-1.404,0.941-3.308,0.538-4.209-0.892l-31.32-49.695
			c-2.25-3.572-7.014-4.595-10.539-2.223c-3.406,2.292-4.174,7.007-1.987,10.481l33.963,53.942c1.155,1.834,3.047,3.079,5.188,3.414
			l17.374,2.715c0.129,0.02,0.305,0.047,0.407,0.338c0.102,0.291-0.017,0.423-0.104,0.519l-39.107,43.098
			c-1.003,1.104-1.652,2.482-1.868,3.958l-5.772,39.58c-0.551,3.779-2.409,7.276-5.233,9.848l-54.104,49.259
			c-2.914,2.654-6.69,4.116-10.634,4.116c-6.503,0-12.433-4.081-14.754-10.155l-19.958-52.197l-5.014-54.434
			c-1.426-15.475-14.203-27.774-29.723-28.609l-60.57-3.256c-3.777-0.203-6.923-2.808-7.827-6.48l-10.931-44.407
			c-0.742-3.016,0.213-6.197,2.494-8.305l5.843-5.401c3.016-2.787,3.497-7.542,0.8-10.64c-2.791-3.205-7.655-3.451-10.752-0.588
			l-6.072,5.612c-6.29,5.813-8.925,14.591-6.877,22.906l10.931,44.407c2.494,10.131,11.169,17.313,21.587,17.874l60.569,3.256
			c8.141,0.438,14.844,6.89,15.591,15.007l5.108,55.461c0.063,0.682,0.219,1.351,0.463,1.991l20.326,53.16
			c4.527,11.842,16.088,19.798,28.766,19.798c7.688,0,15.051-2.85,20.732-8.024l54.104-49.258c5.385-4.902,8.929-11.57,9.979-18.775
			l5.442-37.316l37.57-41.404c3.839-4.231,5.042-10.206,3.139-15.593c-1.004-2.844-2.79-5.265-5.077-7.053l44.474-29.831
			c0.894-0.599,1.697-1.345,2.274-2.253c1.729-2.724,1.527-6.068-0.249-8.499l-5.132-7.023l9.853-1.182
			c3.507-0.422,6.845,1.312,8.521,4.412c1.357,2.51,3.938,3.934,6.604,3.934c1.498,0,3.024-0.45,4.373-1.411
			C465.756,203.322,466.574,198.995,464.707,195.639z"/>
	</g>
</g>
<g>
	<g>
		<path d="M390.473,135.567l-16.7-24.716c-2.32-3.432-6.982-4.334-10.414-2.016c-3.432,2.319-4.334,6.981-2.016,10.413l16.7,24.717
			c1.45,2.146,3.814,3.302,6.222,3.302c1.444,0,2.905-0.417,4.192-1.287C391.889,143.661,392.791,138.999,390.473,135.567z"/>
	</g>
</g>
<g>
</g>
<g>
</g>
<g>
</g>
<g>
</g>
<g>
</g>
<g>
</g>
<g>
</g>
<g>
</g>
<g>
</g>
<g>
</g>
<g>
</g>
<g>
</g>
<g>
</g>
<g>
</g>
<g>
</g>
</svg>
